<svg preserveAspectRatio="none" width="100%" height="100%" overflow="visible" style="display: block;" viewBox="0 0 9.65355 14.3465" fill="none" xmlns="http://www.w3.org/2000/svg">
<path id="&#229;&#189;&#162;&#231;&#138;&#182;" fill-rule="evenodd" clip-rule="evenodd" d="M9.49605 13.189C9.60105 12.9633 9.65355 12.7192 9.65355 12.4567H9.65353V1.90552C9.65354 1.64305 9.60105 1.39633 9.49606 1.16536C9.39107 0.934391 9.24671 0.732292 9.06298 0.559062C8.87926 0.385833 8.66403 0.249349 8.41731 0.149609C8.17059 0.0498698 7.90551 0 7.62205 0H2.03148C1.74802 0 1.48293 0.0498698 1.23622 0.149609C0.98951 0.249349 0.774286 0.385833 0.590547 0.559062C0.406807 0.732292 0.262448 0.934391 0.157469 1.16536C0.0524896 1.39633 1.5501e-09 1.64305 1.5501e-09 1.90552V12.4567C-1.04151e-05 12.7191 0.0524792 12.9632 0.157469 13.189C0.262458 13.4147 0.406818 13.6142 0.590547 13.7874C0.774276 13.9606 0.9895 14.0971 1.23622 14.1968C1.48294 14.2966 1.74803 14.3465 2.03148 14.3465H7.62205C7.90548 14.3464 8.17057 14.2966 8.41731 14.1968C8.66405 14.0971 8.87928 13.9606 9.06298 13.7874C9.24669 13.6142 9.39105 13.4147 9.49605 13.189ZM1.25983 2.66142H8.37795V11.685H1.25983V2.66142ZM4.81889 12.126C4.59842 12.126 4.40682 12.2047 4.24409 12.3622C4.08136 12.5197 4 12.7139 4 12.9449C4 13.1654 4.08136 13.357 4.24409 13.5197C4.40682 13.6824 4.59842 13.7638 4.81889 13.7638C5.04986 13.7638 5.24408 13.6824 5.40156 13.5197C5.55904 13.357 5.63779 13.1654 5.6378 12.9449C5.6378 12.7139 5.55905 12.5197 5.40156 12.3622C5.24407 12.2048 5.04985 12.126 4.81891 12.126H4.81889ZM5.99998 1.12598C6.05248 1.17322 6.07873 1.23884 6.07873 1.32283C6.07874 1.40683 6.0525 1.47245 6 1.51969C5.9475 1.56693 5.88976 1.59055 5.82677 1.59055H3.82677C3.76379 1.59056 3.70605 1.56694 3.65355 1.51969C3.60105 1.47244 3.5748 1.40682 3.5748 1.32283C3.5748 1.23884 3.60367 1.17322 3.66141 1.12598C3.71915 1.07874 3.77427 1.05512 3.82677 1.05512H5.82677C5.88974 1.05512 5.94748 1.07874 5.99998 1.12598Z" fill="var(--fill-0, black)"/>
</svg>
