<svg preserveAspectRatio="none" width="100%" height="100%" overflow="visible" style="display: block;" viewBox="0 0 8.90781 10.3813" fill="none" xmlns="http://www.w3.org/2000/svg">
<path id="&#229;&#189;&#162;&#231;&#138;&#182;" fill-rule="evenodd" clip-rule="evenodd" d="M8.25781 0.640625C8.25781 0.285937 7.97031 0 7.61719 0C7.26406 0 6.97813 0.2875 6.97656 0.640625V1.00625C6.97656 1.36094 7.26406 1.64688 7.61719 1.64688C7.97188 1.64688 8.25781 1.35938 8.25781 1.00625V0.640625ZM1.94375 0.703125C1.94375 0.348437 1.65625 0.0625 1.30313 0.0625C0.95 0.0625 0.664062 0.35 0.6625 0.703125V3.37188C0.6625 3.72656 0.95 4.0125 1.30313 4.0125C1.65781 4.0125 1.94375 3.725 1.94375 3.37188V0.703125ZM0.385938 4.00469H0V4.41406C0 4.19531 0.170313 4.01719 0.385938 4.00469ZM8.90312 4.01094V4.39688C8.89062 4.18125 8.7125 4.01094 8.49375 4.01094H8.90312ZM8.90781 10.3813H8.52188C8.7375 10.3688 8.90781 10.1906 8.90781 9.97188V10.3813ZM0.0015625 10.3719V9.98594C0.0140625 10.2016 0.192188 10.3719 0.410938 10.3719H0.0015625ZM3.29531 7.19063C3.29531 6.8375 3.58125 6.55 3.93594 6.55H4.97031C5.32344 6.55 5.61094 6.83594 5.61094 7.19063C5.61094 7.54375 5.325 7.83125 4.97031 7.83125H3.93594C3.58281 7.82969 3.29531 7.54375 3.29531 7.19063Z" fill="var(--fill-0, #242424)"/>
</svg>
