<svg preserveAspectRatio="none" width="100%" height="100%" overflow="visible" style="display: block;" viewBox="0 0 30 30" fill="none" xmlns="http://www.w3.org/2000/svg">
<g id="&#229;&#183;&#165;&#229;&#141;&#149;">
<rect id="&#231;&#159;&#169;&#229;&#189;&#162;" opacity="0.01" width="30" height="30" fill="var(--fill-0, black)"/>
<path id="&#229;&#189;&#162;&#231;&#138;&#182;" fill-rule="evenodd" clip-rule="evenodd" d="M6.53846 2H23.4615C24.8611 2 26 3.13892 26 4.53846V24.8462C26 26.2457 24.8611 27.3846 23.4615 27.3846H6.53846C5.13892 27.3846 4 26.2457 4 24.8462V4.53846C4 3.13892 5.13892 2 6.53846 2ZM20.0769 12.1538H9.92308C9.45576 12.1538 9.07692 12.5327 9.07692 13C9.07692 13.4673 9.45576 13.8462 9.92308 13.8462H20.0769C20.5442 13.8462 20.9231 13.4673 20.9231 13C20.9231 12.5327 20.5442 12.1538 20.0769 12.1538ZM20.0769 17.2308H9.92308C9.45576 17.2308 9.07692 17.6096 9.07692 18.0769C9.07692 18.5442 9.45576 18.9231 9.92308 18.9231H20.0769C20.5442 18.9231 20.9231 18.5442 20.9231 18.0769C20.9231 17.6096 20.5442 17.2308 20.0769 17.2308ZM9.92308 3.69231H20.0769V6.23077H9.92308V3.69231ZM23.4615 25.6923C23.9289 25.6923 24.3077 25.3135 24.3077 24.8462V4.53846C24.3077 4.07223 23.9286 3.69231 23.4615 3.69231H21.7692V6.23077C21.7692 7.16408 21.0102 7.92308 20.0769 7.92308H9.92308C8.98977 7.92308 8.23077 7.16408 8.23077 6.23077V3.69231H6.53846C6.07223 3.69231 5.69231 4.07223 5.69231 4.53846V24.8462C5.69231 25.3132 6.07223 25.6923 6.53846 25.6923H23.4615Z" fill="var(--fill-0, #7467EF)"/>
</g>
</svg>
